<svg xmlns="http://www.w3.org/2000/svg" width="247" height="51" fill="none" viewBox="23.2 23.2 246.5 51"><path fill="#00b1a5" d="M59.245 56.643H57.32V69.43h1.924zm8.236 7.512c0-.867-.038-1.484-.124-1.849q-.12-.546-.457-.715c-.224-.114-.61-.166-1.157-.166s-.995.114-1.27.336c-.277.223-.448.545-.525.967q-.112.634-.11 1.801v4.906H62.03v-9.48h1.642l.076 1.266h.129q.3-.69.933-1.052.635-.364 1.719-.365c.785 0 1.37.128 1.766.38q.586.381.795 1.141.206.761.205 2.119v5.986h-1.81v-5.28zm5.656 5.351a24 24 0 0 1-1.514-.166v-1.45q1.342.164 2.856.165.766 0 1.138-.128c.248-.085.41-.218.486-.388q.114-.26.114-.763.001-.556-.076-.792a.48.48 0 0 0-.262-.317q-.187-.087-.652-.138l-2.052-.28q-1.065-.128-1.438-.734-.37-.605-.371-1.905.001-1.151.41-1.768a2.02 2.02 0 0 1 1.128-.825q.721-.213 1.856-.213.708-.001 1.486.076c.514.052.938.118 1.261.203v1.432a18 18 0 0 0-2.613-.185q-.991-.001-1.381.232-.391.234-.39 1.015c0 .336.019.578.066.725a.5.5 0 0 0 .253.317c.123.062.323.114.6.147l2.108.26q.672.093 1.057.318c.258.147.448.408.581.773q.195.547.196 1.607-.001 1.151-.367 1.777c-.243.417-.6.701-1.062.853-.466.156-1.076.232-1.818.232q-.707.002-1.586-.076m6.913-9.56h1.643l.076 1.266h.128c.21-.545.543-.915.99-1.114q.672-.298 1.586-.298 1.177 0 1.819.426.643.426.923 1.47c.186.692.281 1.687.281 2.971s-.09 2.285-.271 2.982c-.181.701-.481 1.194-.905 1.488q-.637.435-1.795.436-.972.001-1.595-.29-.627-.285-.961-.976h-.11v4.759h-1.809V59.946zm4.994 7.807q.386-.208.514-.863.129-.66.129-2.204 0-1.542-.129-2.203-.128-.663-.514-.863c-.257-.138-.68-.204-1.28-.204q-.709.001-1.11.223c-.266.147-.457.398-.571.744q-.15.39-.186.91-.036.519-.038 1.393 0 1.563.186 2.195.186.576.585.825.4.249 1.129.25c.6 0 1.023-.066 1.28-.203m4.68-12.133h1.886v1.838h-1.886zm.038 4.327h1.81v9.479h-1.81zm4.385-.001H95.8l.076 1.712h.133c.2-.706.524-1.195.981-1.46q.678-.398 1.8-.398v1.8c-.734 0-1.31.124-1.719.375-.41.247-.7.63-.857 1.143-.162.511-.243 1.218-.243 2.109v4.199h-1.809v-9.48zm13.202 5.338h-5.489q.001 1.3.138 1.838c.095.36.309.607.652.745q.515.204 1.728.203 1.009 0 2.652-.184v1.412a9 9 0 0 1-1.38.204c-.572.047-1.129.076-1.662.076-1.181 0-2.052-.152-2.604-.455s-.919-.782-1.09-1.441q-.264-.988-.262-2.977c0-1.327.081-2.284.243-2.943q.242-.994 1.042-1.479.801-.483 2.523-.483c1.148 0 1.91.156 2.4.474s.8.791.924 1.431q.185.961.185 2.981zm-4.827-3.773q-.386.205-.514.744c-.086.36-.139.948-.148 1.768h3.732v-.095c0-.791-.052-1.37-.147-1.73s-.271-.597-.514-.716q-.364-.176-1.129-.175c-.599 0-1.023.071-1.28.204m12.964-5.891h-1.81v13.81h1.81zm3.466 13.546q-.772-.406-1-1.366c-.148-.64-.224-1.673-.224-3.114s.076-2.478.224-3.123q.221-.968 1-1.365.772-.398 2.566-.398t2.566.398q.77.398 1 1.365.222.968.223 3.123-.001 2.154-.223 3.114t-1 1.365c-.519.275-1.371.408-2.566.408q-1.794-.002-2.566-.408m3.97-1.337q.393-.221.486-.853.094-.634.095-2.285c0-1.1-.033-1.881-.095-2.294q-.093-.624-.486-.848-.392-.222-1.4-.223c-.671 0-1.118.076-1.38.223q-.393.221-.486.848-.094.624-.095 2.294c0 1.114.029 1.863.095 2.285q.093.632.486.853.394.221 1.38.222c.658 0 1.138-.075 1.4-.222m6.418 1.598-2.871-9.48h1.866l2.128 7.565h.148l2.109-7.564h1.847l-2.871 9.479zm13.687-4.142h-5.489q.001 1.3.138 1.838.14.539.652.745.514.204 1.729.203 1.007 0 2.651-.184v1.412a9 9 0 0 1-1.38.204c-.572.047-1.129.076-1.662.076-1.18 0-2.052-.152-2.604-.455s-.919-.782-1.09-1.441q-.263-.988-.262-2.977c0-1.327.081-2.284.243-2.943q.241-.994 1.047-1.479c.533-.322 1.376-.483 2.519-.483 1.142 0 1.909.156 2.399.474.491.317.8.791.924 1.431q.185.961.185 2.981zm-4.827-3.773q-.386.205-.514.744c-.086.36-.138.948-.148 1.768h3.733v-.095c0-.791-.053-1.37-.148-1.73s-.271-.597-.514-.716q-.365-.176-1.128-.175c-.6 0-1.024.071-1.281.204m11.902-.038h-1.623v-1.526h1.623v-1.247q0-1.45.343-2.08c.228-.422.6-.692 1.1-.81q.757-.178 2.437-.176v1.374q-.936.001-1.352.095-.421.092-.571.374-.149.278-.148.91v1.56h2.071v1.526h-2.071v7.953h-1.809zm6.394 7.693c-.519-.27-.847-.726-1-1.366-.147-.64-.224-1.673-.224-3.114s.077-2.478.224-3.123q.222-.968 1-1.365.772-.398 2.566-.398t2.566.398 1 1.365q.223.968.224 3.123-.001 2.154-.224 3.114-.222.96-1 1.365c-.519.275-1.371.408-2.566.408q-1.794-.002-2.566-.408m3.971-1.337q.392-.221.485-.853.092-.634.091-2.285c0-1.1-.029-1.881-.091-2.294q-.093-.624-.485-.848-.393-.222-1.4-.223c-.671 0-1.119.076-1.381.223q-.392.221-.485.848-.095.624-.096 2.294c0 1.114.029 1.863.096 2.285q.093.632.485.853.394.221 1.381.222c.657 0 1.138-.075 1.4-.222m4.646-7.882h1.643l.076 1.712h.133c.2-.706.524-1.195.981-1.46.452-.265 1.057-.398 1.8-.398v1.8q-1.1 0-1.719.375c-.41.247-.7.63-.857 1.143-.162.511-.243 1.218-.243 2.109v4.199h-1.809v-9.48zm12.188-4.326h-1.809v13.81h1.809zm9.565 9.664h-5.49q.001 1.3.139 1.838c.095.36.309.607.652.745q.514.204 1.728.203 1.008 0 2.652-.184v1.412c-.348.085-.81.156-1.381.204s-1.128.076-1.661.076q-1.773 0-2.605-.455c-.552-.304-.918-.782-1.09-1.441q-.263-.988-.262-2.977c0-1.327.081-2.284.243-2.943q.242-.994 1.048-1.479c.533-.322 1.375-.483 2.518-.483s1.909.156 2.4.474.799.791.923 1.431q.186.961.186 2.981zm-4.828-3.773q-.385.205-.514.744-.131.539-.148 1.768h3.733v-.095q.001-1.188-.148-1.73-.15-.539-.514-.716t-1.128-.175c-.6 0-1.024.071-1.281.204m7.208 7.432c-.428-.422-.642-1.138-.642-2.157q0-1.094.242-1.711.244-.613.824-.891.58-.279 1.623-.28c.634 0 1.553.024 2.747.076v-.502c0-.692-.057-1.185-.166-1.47a.92.92 0 0 0-.633-.559c-.315-.085-.834-.128-1.571-.128-.348 0-.786.02-1.305.057s-.928.08-1.214.133v-1.45q1.4-.263 3.099-.261 1.55.001 2.314.35.764.356 1.029 1.124.262.77.261 2.237v5.91h-1.642l-.076-1.227h-.11q-.357.817-1.071 1.095c-.481.184-1.038.28-1.671.28-.924 0-1.595-.21-2.023-.631m3.842-1.014c.271-.1.485-.285.633-.56q.3-.596.3-1.749v-.445h-2.295q-.578-.001-.857.104a.63.63 0 0 0-.39.408c-.077.203-.11.526-.11.957q-.001.612.119.91a.7.7 0 0 0 .467.408c.228.076.59.113 1.076.113.433 0 .79-.047 1.061-.147m5.314-7.977h1.642l.076 1.712h.133c.2-.706.524-1.195.981-1.46q.679-.398 1.8-.398v1.8q-1.099 0-1.719.375c-.409.247-.7.63-.857 1.143-.162.511-.243 1.218-.243 2.109v4.199h-1.809v-9.48zm11.764 4.205q.001-1.301-.119-1.849-.122-.546-.457-.715c-.224-.114-.61-.166-1.157-.166-.548 0-.995.114-1.271.336q-.409.334-.524.967-.114.634-.114 1.801v4.906h-1.81v-9.48h1.643l.076 1.266h.133q.299-.69.934-1.052.634-.364 1.718-.365c.786 0 1.371.128 1.767.38q.586.381.795 1.141.206.761.204 2.119v5.986h-1.809v-5.28zm4.327-8.531h1.886v1.838h-1.886zm.038 4.327h1.81v9.479h-1.81zm9.841 4.204c0-.867-.038-1.484-.124-1.849q-.121-.546-.457-.715c-.223-.114-.609-.166-1.157-.166-.547 0-.995.114-1.271.336s-.447.545-.523.967q-.115.634-.115 1.801v4.906h-1.809v-9.48h1.643l.076 1.266h.133q.3-.69.933-1.052.635-.364 1.719-.365c.786 0 1.371.128 1.766.38q.587.381.795 1.141.206.761.205 2.119v5.986h-1.809v-5.28zm4.575 8.863v-1.413q1.57.074 2.505.076 1.214.001 1.756-.232.543-.234.7-.839t.157-1.962v-.408h-.114c-.2.46-.509.782-.933.977q-.636.287-1.585.289-1.194 0-1.838-.417-.643-.42-.914-1.45-.272-1.03-.272-2.949c0-1.28.096-2.284.281-2.98q.278-1.053.933-1.48.657-.426 1.829-.426.893 0 1.566.298.673.299 1.009 1.114h.11l.076-1.265h1.662v8.232q.001 1.989-.262 3.01c-.176.683-.548 1.185-1.119 1.517q-.858.492-2.652.493c-1.195 0-2.123-.062-2.895-.185m4.285-5.323c.257-.142.443-.37.572-.677q.148-.37.204-.91.057-.538.057-1.432.001-.84-.047-1.365a3.3 3.3 0 0 0-.195-.9q-.187-.52-.581-.754t-1.081-.232q-.915-.002-1.295.204-.385.206-.505.853-.122.653-.123 2.194c0 1.029.042 1.74.128 2.166q.129.64.514.853c.257.143.681.214 1.281.214q.692 0 1.076-.214"/><path fill="#000" d="M24.243 44.306v-.47c.68-.151 1.213-.331 1.618-.55.4-.218.771-.55 1.11-1.014l12.283-15.906c.252-.332.414-.554.485-.692a.7.7 0 0 0 .11-.355q.001-.201-.22-.375a2 2 0 0 0-.633-.28v-.407h9.294v.408c-.276.076-.49.166-.62.275-.142.109-.223.232-.242.379q0 .186.143.422c.1.156.257.36.462.602l12.592 15.673c.405.484.852.868 1.319 1.161a5.9 5.9 0 0 0 1.671.66v.468h-8.95v-.469c.3-.076.504-.16.638-.256.119-.104.185-.218.185-.336a.8.8 0 0 0-.11-.38c-.066-.132-.228-.355-.461-.649l-2.538-3.19H34.583l-2.414 3.19a1 1 0 0 1-.095.095c-.357.44-.543.744-.543.938q0 .18.215.337c.133.09.338.18.619.256v.47h-8.127zm12.283-7.987h13.74l-6.923-8.787-6.822 8.787z"/><path stroke="#000" stroke-miterlimit="10" stroke-width="1.88" d="M24.243 44.306v-.47c.68-.151 1.213-.331 1.618-.55.4-.218.771-.55 1.11-1.014l12.283-15.906c.252-.332.414-.554.485-.692a.7.7 0 0 0 .11-.355q.001-.201-.22-.375a2 2 0 0 0-.633-.28v-.407h9.294v.408c-.276.076-.49.166-.62.275-.142.109-.223.232-.242.379q0 .186.143.422c.1.156.257.36.462.602l12.592 15.673c.405.484.852.868 1.319 1.161a5.9 5.9 0 0 0 1.671.66v.468h-8.95v-.469c.3-.076.504-.16.638-.256.119-.104.185-.218.185-.336a.8.8 0 0 0-.11-.38c-.066-.132-.228-.355-.461-.649l-2.538-3.19H34.583l-2.414 3.19a1 1 0 0 1-.095.095c-.357.44-.543.744-.543.938q0 .18.215.337c.133.09.338.18.619.256v.47h-8.127zm12.283-7.987h13.74l-6.923-8.787-6.822 8.787z"/><path fill="#000" d="M110.61 24.252c4.461 0 7.922.508 10.374 1.527q3.679 1.541 3.68 4.27c0 1.929-1.2 3.35-3.613 4.256q-3.627 1.359-11.331 1.36H99.379v7.072c0 .346.1.597.3.734.21.138.619.27 1.252.36v.47h-8.436v-.47c.614-.08 1.019-.203 1.2-.346.2-.137.29-.388.29-.748V25.812c0-.37-.105-.63-.305-.778-.205-.146-.595-.274-1.19-.374v-.408zm-1.495 2.783h-9.74v5.853h10.059q5.243-.002 7.665-.72t2.423-2.266c0-1.033-.804-1.74-2.399-2.185-1.595-.46-4.261-.678-8.008-.678"/><path stroke="#000" stroke-miterlimit="10" stroke-width="1.88" d="M110.61 24.252c4.461 0 7.922.508 10.374 1.527q3.679 1.541 3.68 4.27c0 1.929-1.2 3.35-3.613 4.256q-3.627 1.359-11.331 1.36H99.379v7.072c0 .346.1.597.3.734.21.138.619.27 1.252.36v.47h-8.436v-.47c.614-.08 1.019-.203 1.2-.346.2-.137.29-.388.29-.748V25.812c0-.37-.105-.63-.305-.778-.205-.146-.595-.274-1.19-.374v-.408zm-1.495 2.783h-9.74v5.853h10.059q5.243-.002 7.665-.72t2.423-2.266c0-1.033-.804-1.74-2.399-2.185-1.595-.46-4.261-.678-8.008-.678z"/><path fill="#000" d="M155.724 44.306v-.47c.614-.08 1.019-.204 1.205-.346.185-.133.285-.388.285-.749V25.816q-.001-.556-.295-.777c-.2-.147-.604-.28-1.195-.374v-.408h8.437v.408c-.586.1-.991.227-1.186.374q-.306.222-.305.777v16.925c0 .36.1.617.286.75.19.146.59.265 1.2.345v.47h-8.437z"/><path stroke="#000" stroke-miterlimit="10" stroke-width="1.88" d="M155.724 44.306v-.47c.614-.08 1.019-.204 1.205-.346.185-.133.285-.388.285-.749V25.816q-.001-.556-.295-.777c-.2-.147-.604-.28-1.195-.374v-.408h8.437v.408c-.586.1-.991.227-1.186.374q-.306.222-.305.777v16.925c0 .36.1.617.286.75.19.146.59.265 1.2.345v.47h-8.437z"/><path fill="#000" d="M197.701 44.306v-.47c.61-.08 1.019-.204 1.2-.346.195-.133.29-.388.29-.749V25.816c0-.37-.109-.63-.304-.777-.2-.147-.596-.28-1.186-.374v-.408h8.436v.408c-.59.1-.99.227-1.185.374-.205.147-.3.408-.3.777v16.925c0 .36.086.617.276.75.2.146.605.265 1.214.345v.47z"/><path stroke="#000" stroke-miterlimit="10" stroke-width="1.88" d="M197.701 44.306v-.47c.61-.08 1.019-.204 1.2-.346.195-.133.29-.388.29-.749V25.816c0-.37-.109-.63-.304-.777-.2-.147-.596-.28-1.186-.374v-.408h8.436v.408c-.59.1-.99.227-1.185.374-.205.147-.3.408-.3.777v16.925c0 .36.086.617.276.75.2.146.605.265 1.214.345v.47z"/><path fill="#000" d="M247.99 44.324v-.45c.619-.08 1.019-.194 1.205-.332.195-.128.281-.374.281-.72V27.518h-10.969c-.614 0-1.043.057-1.286.161q-.372.165-.623.683h-.695v-4.129h.728q.284.538.662.707c.252.123.676.17 1.266.17h27.542c.595 0 1.014-.052 1.271-.17.257-.114.486-.346.695-.707h.695v4.129h-.695c-.176-.346-.371-.574-.604-.683-.234-.109-.662-.161-1.3-.161h-11.231v15.304c0 .346.1.588.281.72.195.138.59.252 1.214.332v.45h-8.441z"/><path stroke="#000" stroke-miterlimit="10" stroke-width="1.84" d="M247.99 44.324v-.45c.619-.08 1.019-.194 1.205-.332.195-.128.281-.374.281-.72V27.518h-10.969c-.614 0-1.043.057-1.286.161q-.372.165-.623.683h-.695v-4.129h.728q.284.538.662.707c.252.123.676.17 1.266.17h27.542c.595 0 1.014-.052 1.271-.17.257-.114.486-.346.695-.707h.695v4.129h-.695c-.176-.346-.371-.574-.604-.683-.234-.109-.662-.161-1.3-.161h-11.231v15.304c0 .346.1.588.281.72.195.138.59.252 1.214.332v.45h-8.441z"/><path fill="#ec1c24" d="M80.04 37.32h-7.136a.37.37 0 0 1-.372-.37V30.3a.37.37 0 0 1 .372-.37h7.136c.205 0 .372.166.372.37v6.65c0 .203-.167.37-.372.37m63.306 0h-7.141a.37.37 0 0 1-.372-.37V30.3c0-.204.167-.37.372-.37h7.141a.37.37 0 0 1 .371.37v6.65a.37.37 0 0 1-.371.37m41.748 0h-7.141a.37.37 0 0 1-.371-.37V30.3a.37.37 0 0 1 .371-.37h7.141c.205 0 .372.166.372.37v6.65c0 .203-.167.37-.372.37m42.201 0h-7.137a.37.37 0 0 1-.371-.37V30.3c0-.204.167-.37.371-.37h7.137a.37.37 0 0 1 .371.37v6.65a.37.37 0 0 1-.371.37"/></svg>